<?xml version="1.0" standalone="no"?><!DOCTYPE svg PUBLIC "-//W3C//DTD SVG 1.1//EN" "http://www.w3.org/Graphics/SVG/1.1/DTD/svg11.dtd"><svg width="100%" height="100%" viewBox="0 0 100 140" version="1.1" xmlns="http://www.w3.org/2000/svg" xmlns:xlink="http://www.w3.org/1999/xlink" xml:space="preserve" style="fill-rule:evenodd;clip-rule:evenodd;stroke-linejoin:round;stroke-miterlimit:1.41421;"><g id="Layer1"><path d="M58.988,20.434c5.592,-7.148 14.863,-10.531 24.697,-8.892c1.608,7.178 0.246,14.368 -3.9,20.106c-5.699,7.909 -15.858,11.714 -25.778,9.475c-1.181,-7.653 0.576,-15.057 4.981,-20.689M89.212,59.429c-1.916,-2.408 -5.429,-2.817 -7.849,-0.906c-2.419,1.908 -2.83,5.4 -0.91,7.804c5.47,6.878 8.367,15.152 8.367,23.948c0,21.287 -17.419,38.608 -38.819,38.608c-21.403,0 -38.821,-17.321 -38.821,-38.608c0,-21.283 17.418,-38.604 38.821,-38.604c0.091,0 0.184,-0.009 0.277,-0.014c3.178,0.825 6.392,1.245 9.587,1.245c11.49,0 22.331,-5.52 29.006,-14.773c6.831,-9.468 8.497,-21.525 4.573,-33.082c-0.603,-1.761 -2.051,-3.114 -3.862,-3.592c-3.647,-0.963 -7.313,-1.455 -10.899,-1.455c-11.357,0 -21.753,4.962 -28.514,13.611c-5.977,7.634 -8.561,17.404 -7.427,27.473c-24.14,3.507 -42.742,24.228 -42.742,49.191c0,27.417 22.433,49.725 50.001,49.725c27.568,0 49.999,-22.308 49.999,-49.725c0,-11.322 -3.728,-21.986 -10.788,-30.846" style="fill:#c49a63;fill-rule:nonzero;"/></g></svg>